<?xml version="1.0" encoding="UTF-8"?>
<!DOCTYPE svg PUBLIC "-//W3C//DTD SVG 1.1//EN" "http://www.w3.org/Graphics/SVG/1.1/DTD/svg11.dtd">
<svg xmlns="http://www.w3.org/2000/svg" version="1.1" width="1735px" height="1635px" style="shape-rendering:geometricPrecision; text-rendering:geometricPrecision; image-rendering:optimizeQuality; fill-rule:evenodd; clip-rule:evenodd" xmlns:xlink="http://www.w3.org/1999/xlink">
<g><path style="opacity:0.97" fill="#000000" d="M 236.5,32.5 C 292.239,28.814 344.906,39.6473 394.5,65C 415.106,76.6018 432.273,92.1018 446,111.5C 446.667,141.167 446.667,170.833 446,200.5C 427.335,162.491 402.502,128.991 371.5,100C 330.841,64.0237 283.174,45.1903 228.5,43.5C 192.361,43.7148 159.694,54.2148 130.5,75C 101.421,97.4803 93.2542,125.98 106,160.5C 115.406,179.908 127.906,197.075 143.5,212C 164.897,231.196 187.897,248.196 212.5,263C 228.848,272.509 245.514,281.509 262.5,290C 289.195,301.514 315.528,313.847 341.5,327C 373.654,342.836 401.487,364.336 425,391.5C 456.086,433.341 464.086,479.341 449,529.5C 434.614,566.22 409.114,592.053 372.5,607C 329.088,623.141 284.422,627.808 238.5,621C 161.703,609.521 96.5361,576.021 43,520.5C 38.7597,515.683 34.7597,510.683 31,505.5C 30.3333,466.833 30.3333,428.167 31,389.5C 54.5908,449.529 89.7575,501.695 136.5,546C 169.201,575.526 206.868,596.526 249.5,609C 299.872,622.425 346.872,615.091 390.5,587C 432.583,556.446 439.416,519.279 411,475.5C 403.247,465.076 394.747,455.243 385.5,446C 363.939,426.554 340.606,409.554 315.5,395C 295.64,383.569 275.307,372.902 254.5,363C 214.78,347.145 177.447,327.145 142.5,303C 121.87,288.039 104.704,269.872 91,248.5C 70.6278,210.755 66.9612,171.421 80,130.5C 94.266,94.5662 119.099,68.7329 154.5,53C 180.863,41.7426 208.196,34.9093 236.5,32.5 Z"/></g>
<g><path style="opacity:0.944" fill="#000000" d="M 791.5,473.5 C 827.689,470.495 852.856,485.495 867,518.5C 873.553,542.071 869.219,563.404 854,582.5C 840.033,598.077 823.2,609.577 803.5,617C 833.403,657.583 865.57,696.416 900,733.5C 905.659,738.832 911.325,744.165 917,749.5C 935.979,733.529 951.646,714.862 964,693.5C 965.255,694.211 966.421,695.044 967.5,696C 954.61,717.394 938.944,736.561 920.5,753.5C 936.947,767.56 955.614,777.727 976.5,784C 991.971,786.05 1005.64,782.05 1017.5,772C 1025.4,764.766 1032.57,756.933 1039,748.5C 1039.69,749.025 1040.19,749.692 1040.5,750.5C 1028.55,769.287 1012.88,784.121 993.5,795C 971.89,802.111 950.557,801.111 929.5,792C 917.841,786.508 906.841,780.008 896.5,772.5C 872.417,790.213 846.75,805.38 819.5,818C 793.163,829.763 765.83,833.096 737.5,828C 694.172,816.151 671.839,787.651 670.5,742.5C 674.072,696.123 696.072,661.623 736.5,639C 745.079,634.875 753.746,631.042 762.5,627.5C 737.49,595.793 728.657,560.127 736,520.5C 744.623,493.035 763.123,477.368 791.5,473.5 Z M 796.5,478.5 C 820.825,477.917 836.658,489.25 844,512.5C 851.414,555.631 837.081,589.297 801,613.5C 782.053,590.611 768.053,564.944 759,536.5C 750.263,502.905 762.763,483.572 796.5,478.5 Z M 764.5,630.5 C 802.992,680.507 845.659,727.007 892.5,770C 864.666,789.285 833.999,801.951 800.5,808C 749.635,812.736 714.801,791.57 696,744.5C 687.678,711.642 695.511,683.308 719.5,659.5C 732.7,646.952 747.7,637.286 764.5,630.5 Z"/></g>
<g><path style="opacity:0.98" fill="#000000" d="M 1213.5,596.5 C 1273.17,596.333 1332.83,596.5 1392.5,597C 1425.98,598.69 1458.64,604.69 1490.5,615C 1569.27,643.708 1596.44,698.208 1572,778.5C 1560.06,805.111 1541.22,825.278 1515.5,839C 1495.06,849.477 1473.4,856.144 1450.5,859C 1482.8,867.314 1509.3,884.481 1530,910.5C 1546.19,932.19 1559.86,955.523 1571,980.5C 1586.18,1017.19 1602.18,1053.52 1619,1089.5C 1630.61,1114.43 1646.11,1136.6 1665.5,1156C 1679.31,1167.77 1695.31,1173.94 1713.5,1174.5C 1713.5,1176.83 1713.5,1179.17 1713.5,1181.5C 1681.33,1182.73 1650,1178.23 1619.5,1168C 1572.14,1149.19 1541.98,1115.02 1529,1065.5C 1520.5,1030.86 1513.84,995.86 1509,960.5C 1505.63,935.377 1496.96,912.377 1483,891.5C 1469.14,875.536 1451.64,866.37 1430.5,864C 1385.98,866.735 1349.48,851.235 1321,817.5C 1300.28,789.387 1286.62,758.053 1280,723.5C 1279.5,876.166 1279.33,1028.83 1279.5,1181.5C 1257.5,1181.5 1235.5,1181.5 1213.5,1181.5C 1213.5,986.5 1213.5,791.5 1213.5,596.5 Z M 1279.5,603.5 C 1311.17,603.333 1342.84,603.5 1374.5,604C 1403.3,604.825 1430.63,611.491 1456.5,624C 1496.7,646.875 1516.37,681.709 1515.5,728.5C 1515.3,752.373 1510.8,775.373 1502,797.5C 1481.14,839.959 1446.98,859.126 1399.5,855C 1378.17,851.334 1359.5,842.334 1343.5,828C 1317.71,803.608 1300.21,774.108 1291,739.5C 1284.85,717.58 1281.18,695.247 1280,672.5C 1279.5,649.502 1279.33,626.502 1279.5,603.5 Z"/></g>
<g><path style="opacity:0.931" fill="#16443b" d="M 302.5,1454.5 C 313.505,1454.33 324.505,1454.5 335.5,1455C 340.267,1455.35 344.934,1456.18 349.5,1457.5C 352.779,1467.34 355.446,1477.34 357.5,1487.5C 356.325,1487.72 355.325,1487.39 354.5,1486.5C 345.845,1467.83 331.178,1458.83 310.5,1459.5C 299.957,1458.77 290.291,1461.27 281.5,1467C 273.652,1476.32 272.485,1486.49 278,1497.5C 283.408,1503.8 290.241,1507.96 298.5,1510C 313.032,1512.91 327.365,1516.57 341.5,1521C 364.582,1531.73 371.749,1549.23 363,1573.5C 356.234,1586.92 345.4,1595.08 330.5,1598C 306.513,1601.75 285.346,1595.91 267,1580.5C 266.5,1573.84 266.334,1567.17 266.5,1560.5C 267.552,1560.35 268.552,1560.52 269.5,1561C 280.013,1578.19 295.013,1589.19 314.5,1594C 342.187,1595.98 356.02,1583.14 356,1555.5C 354.869,1549.7 352.036,1544.86 347.5,1541C 342.002,1537.25 336.002,1534.59 329.5,1533C 315.332,1529.96 301.332,1526.29 287.5,1522C 265.934,1512.02 259.434,1495.85 268,1473.5C 276.711,1462.06 288.211,1455.73 302.5,1454.5 Z"/></g>
<g><path style="opacity:0.92" fill="#16443b" d="M 648.5,1454.5 C 663.495,1453.54 678.162,1455.21 692.5,1459.5C 694.831,1468.83 697.164,1478.16 699.5,1487.5C 698.325,1487.72 697.325,1487.39 696.5,1486.5C 685.514,1466.34 668.514,1457.17 645.5,1459C 627.585,1463.32 620.752,1474.49 625,1492.5C 628.475,1497.63 633.309,1500.79 639.5,1502C 647.167,1502.67 654.833,1502.67 662.5,1502C 664.433,1501.75 666.266,1501.25 668,1500.5C 669.682,1501.86 669.849,1503.36 668.5,1505C 648.229,1509.37 632.063,1519.87 620,1536.5C 608.801,1560.91 615.635,1578.08 640.5,1588C 666.584,1592.21 685.751,1582.71 698,1559.5C 704.48,1540.32 697.647,1531.15 677.5,1532C 669.833,1543 662.167,1554 654.5,1565C 652.721,1564.96 651.055,1564.29 649.5,1563C 647.395,1560.98 645.395,1558.98 643.5,1557C 665.415,1540.49 683.415,1520.49 697.5,1497C 698.908,1496.68 700.241,1497.02 701.5,1498C 704.688,1500.43 707.688,1503.1 710.5,1506C 701.167,1513 691.833,1520 682.5,1527C 690.521,1527.17 698.521,1527.67 706.5,1528.5C 709.971,1535.25 710.471,1542.25 708,1549.5C 696.392,1580.43 674.059,1596.77 641,1598.5C 611.422,1597.36 598.089,1582.03 601,1552.5C 603.827,1540.02 610.327,1529.85 620.5,1522C 628.593,1516.29 637.259,1511.62 646.5,1508C 635.75,1509.65 625.75,1507.65 616.5,1502C 608.784,1490.83 608.951,1479.66 617,1468.5C 626.059,1460.43 636.559,1455.76 648.5,1454.5 Z"/></g>
<g><path style="opacity:0.962" fill="#16453c" d="M 771.5,1458.5 C 798.502,1458.33 825.502,1458.5 852.5,1459C 873.931,1464.03 884.098,1477.53 883,1499.5C 881.135,1515.37 872.635,1525.87 857.5,1531C 850.885,1532.11 844.218,1532.77 837.5,1533C 838.416,1533.37 839.25,1533.87 840,1534.5C 849.588,1550.68 859.921,1566.35 871,1581.5C 875.667,1588.01 881.833,1592.34 889.5,1594.5C 875.5,1595.83 861.5,1595.83 847.5,1594.5C 853.522,1592.24 855.022,1588.24 852,1582.5C 843.333,1566.49 833.667,1551.16 823,1536.5C 821.065,1534.9 818.899,1533.73 816.5,1533C 809.842,1532.5 803.175,1532.33 796.5,1532.5C 796.333,1549.5 796.5,1566.5 797,1583.5C 797.828,1589.16 800.995,1592.83 806.5,1594.5C 794.833,1595.83 783.167,1595.83 771.5,1594.5C 776.126,1593.04 779.293,1590.04 781,1585.5C 781.667,1546.83 781.667,1508.17 781,1469.5C 780.529,1467.75 779.862,1466.09 779,1464.5C 776.269,1462.58 773.769,1460.58 771.5,1458.5 Z M 796.5,1461.5 C 808.505,1461.33 820.505,1461.5 832.5,1462C 858.245,1463.41 870.078,1476.91 868,1502.5C 862.987,1519.61 851.487,1528.44 833.5,1529C 821.171,1529.5 808.838,1529.67 796.5,1529.5C 796.5,1506.83 796.5,1484.17 796.5,1461.5 Z"/></g>
<g><path style="opacity:0.935" fill="#16443b" d="M 389.5,1480.5 C 400.368,1479.93 403.534,1484.6 399,1494.5C 393.557,1500.64 387.89,1500.98 382,1495.5C 381.306,1488.89 383.806,1483.89 389.5,1480.5 Z"/></g>
<g><path style="opacity:0.94" fill="#16453c" d="M 521.5,1480.5 C 529.113,1479.61 532.613,1482.95 532,1490.5C 529.361,1497.9 524.194,1500.74 516.5,1499C 511.722,1495.03 511.222,1490.53 515,1485.5C 516.965,1483.45 519.132,1481.78 521.5,1480.5 Z"/></g>
<g><path style="opacity:0.952" fill="#16453c" d="M 1194.5,1503.5 C 1196.47,1503.26 1198.3,1503.59 1200,1504.5C 1201.12,1511.45 1201.79,1518.45 1202,1525.5C 1210.42,1516.04 1220.59,1509.21 1232.5,1505C 1238.76,1503.52 1245.1,1503.18 1251.5,1504C 1258.05,1506.58 1261.55,1511.42 1262,1518.5C 1262.33,1540.17 1262.67,1561.83 1263,1583.5C 1263.74,1584.57 1264.74,1585.24 1266,1585.5C 1271.01,1583.49 1275.35,1580.49 1279,1576.5C 1279.69,1577.03 1280.19,1577.69 1280.5,1578.5C 1275.68,1583.82 1270.68,1588.99 1265.5,1594C 1261.48,1597.68 1256.81,1599.01 1251.5,1598C 1250.3,1597.1 1249.47,1595.93 1249,1594.5C 1248.67,1570.17 1248.33,1545.83 1248,1521.5C 1247.17,1511.01 1241.67,1507.18 1231.5,1510C 1219.78,1514.05 1209.95,1520.88 1202,1530.5C 1201.33,1548.83 1201.33,1567.17 1202,1585.5C 1203.35,1590.35 1206.52,1593.35 1211.5,1594.5C 1199.5,1595.83 1187.5,1595.83 1175.5,1594.5C 1182.02,1593.15 1185.52,1589.15 1186,1582.5C 1186.67,1560.5 1186.67,1538.5 1186,1516.5C 1182.56,1516.47 1179.06,1516.14 1175.5,1515.5C 1183.04,1513.24 1189.37,1509.24 1194.5,1503.5 Z"/></g>
<g><path style="opacity:0.962" fill="#15443c" d="M 393.5,1504.5 C 398.367,1503.53 400.534,1505.53 400,1510.5C 400.333,1535.5 400.667,1560.5 401,1585.5C 402.352,1590.35 405.519,1593.35 410.5,1594.5C 398.5,1595.83 386.5,1595.83 374.5,1594.5C 381.018,1593.15 384.518,1589.15 385,1582.5C 385.667,1560.83 385.667,1539.17 385,1517.5C 381.562,1517.47 378.062,1517.14 374.5,1516.5C 382.038,1514.24 388.372,1510.24 393.5,1504.5 Z"/></g>
<g><path style="opacity:0.927" fill="#16453c" d="M 452.5,1504.5 C 459.508,1504.33 466.508,1504.5 473.5,1505C 478.716,1505.55 483.716,1506.89 488.5,1509C 489.476,1515.08 489.81,1521.24 489.5,1527.5C 488.5,1527.5 487.5,1527.5 486.5,1527.5C 484.778,1517.28 478.778,1511.11 468.5,1509C 454.117,1506.2 441.951,1510.03 432,1520.5C 426.903,1527.55 427.403,1534.05 433.5,1540C 435.392,1540.97 437.392,1541.64 439.5,1542C 454.882,1542.61 470.215,1543.61 485.5,1545C 493.493,1548.31 497.16,1554.31 496.5,1563C 494.982,1578.2 486.982,1588.54 472.5,1594C 460.499,1598.2 448.166,1599.53 435.5,1598C 421.815,1594.13 417.649,1585.63 423,1572.5C 426.383,1569.51 430.217,1568.85 434.5,1570.5C 430.863,1581.05 434.53,1587.89 445.5,1591C 461.372,1595.16 474.872,1591.33 486,1579.5C 489.162,1574.22 490.162,1568.56 489,1562.5C 485.076,1559.41 480.576,1557.91 475.5,1558C 463.167,1557.67 450.833,1557.33 438.5,1557C 423.131,1553.45 417.631,1543.95 422,1528.5C 424.238,1520.93 428.738,1515.09 435.5,1511C 441.02,1508.11 446.686,1505.94 452.5,1504.5 Z"/></g>
<g><path style="opacity:0.942" fill="#16453c" d="M 524.5,1504.5 C 527.547,1503.86 529.713,1504.86 531,1507.5C 531.333,1533.17 531.667,1558.83 532,1584.5C 533.278,1589.61 536.445,1592.95 541.5,1594.5C 529.833,1595.83 518.167,1595.83 506.5,1594.5C 511.555,1592.95 514.722,1589.61 516,1584.5C 516.667,1562.17 516.667,1539.83 516,1517.5C 512.917,1517.55 509.751,1517.22 506.5,1516.5C 510.136,1514.68 513.802,1512.85 517.5,1511C 520.331,1509.33 522.664,1507.17 524.5,1504.5 Z"/></g>
<g><path style="opacity:0.921" fill="#16443b" d="M 942.5,1504.5 C 954.295,1502.38 964.462,1505.38 973,1513.5C 975.941,1521.02 976.274,1528.68 974,1536.5C 962.2,1559.9 943.2,1570.24 917,1567.5C 915.174,1566.99 915.007,1566.16 916.5,1565C 926.012,1566.79 934.679,1564.79 942.5,1559C 954.215,1548.95 961.215,1536.28 963.5,1521C 961.953,1509.21 955.286,1504.87 943.5,1508C 932.687,1511.14 924.521,1517.64 919,1527.5C 908.935,1545.57 908.269,1563.9 917,1582.5C 923.134,1590.75 931.3,1593.91 941.5,1592C 955.718,1586.95 966.385,1577.78 973.5,1564.5C 974.72,1564.89 975.387,1565.72 975.5,1567C 963.606,1592.11 943.939,1602.11 916.5,1597C 902.515,1591.05 895.849,1580.38 896.5,1565C 898.261,1534.24 913.594,1514.07 942.5,1504.5 Z"/></g>
<g><path style="opacity:0.924" fill="#16443c" d="M 983.5,1506.5 C 995.833,1506.5 1008.17,1506.5 1020.5,1506.5C 1020.5,1507.5 1020.5,1508.5 1020.5,1509.5C 1014.5,1509 1012.33,1511.67 1014,1517.5C 1021.06,1536.61 1028.39,1555.61 1036,1574.5C 1044.76,1554.9 1051.92,1534.73 1057.5,1514C 1055.87,1510.03 1052.87,1508.53 1048.5,1509.5C 1048.5,1508.5 1048.5,1507.5 1048.5,1506.5C 1057.5,1506.5 1066.5,1506.5 1075.5,1506.5C 1075.5,1507.5 1075.5,1508.5 1075.5,1509.5C 1070.05,1509.14 1066.22,1511.48 1064,1516.5C 1052.75,1543.26 1042.08,1570.26 1032,1597.5C 1030.29,1598.93 1028.95,1598.59 1028,1596.5C 1018.06,1570.01 1007.73,1543.68 997,1517.5C 994.104,1512.14 989.604,1509.47 983.5,1509.5C 983.5,1508.5 983.5,1507.5 983.5,1506.5 Z"/></g>
<g><path style="opacity:0.935" fill="#16453c" d="M 1131.5,1506.5 C 1143.19,1506.17 1154.85,1506.5 1166.5,1507.5C 1164.33,1508.95 1162,1510.11 1159.5,1511C 1158.28,1512.65 1157.45,1514.48 1157,1516.5C 1156.33,1538.83 1156.33,1561.17 1157,1583.5C 1157.69,1584.36 1158.52,1585.02 1159.5,1585.5C 1164.64,1583.7 1168.97,1580.7 1172.5,1576.5C 1173.5,1576.83 1174.17,1577.5 1174.5,1578.5C 1168.16,1586.69 1160.49,1593.19 1151.5,1598C 1144.46,1598.96 1141.3,1595.8 1142,1588.5C 1141.67,1578.83 1141.33,1569.17 1141,1559.5C 1135.87,1571.97 1128.37,1582.8 1118.5,1592C 1109.51,1597.67 1099.84,1599 1089.5,1596C 1082.23,1590.4 1078.9,1582.9 1079.5,1573.5C 1082.3,1548.38 1093.97,1528.55 1114.5,1514C 1120.03,1510.89 1125.7,1508.39 1131.5,1506.5 Z M 1137.5,1509.5 C 1138.83,1509.5 1140.17,1509.5 1141.5,1509.5C 1148.09,1540.41 1139.76,1566.25 1116.5,1587C 1104.65,1594.26 1096.81,1591.1 1093,1577.5C 1091.51,1549.65 1102.34,1528.15 1125.5,1513C 1129.54,1511.51 1133.54,1510.34 1137.5,1509.5 Z"/></g>
</svg>
